<?xml version="1.0" encoding="UTF-8" standalone="no"?>
<!-- Created with Inkscape (http://www.inkscape.org/) -->

<svg
   width="210mm"
   height="297mm"
   viewBox="0 0 210 297"
   version="1.1"
   id="svg1"
   inkscape:export-filename="bitmap.svg"
   inkscape:export-xdpi="96"
   inkscape:export-ydpi="96"
   xmlns:inkscape="http://www.inkscape.org/namespaces/inkscape"
   xmlns:sodipodi="http://sodipodi.sourceforge.net/DTD/sodipodi-0.dtd"
   xmlns="http://www.w3.org/2000/svg"
   xmlns:svg="http://www.w3.org/2000/svg">
  <sodipodi:namedview
     id="namedview1"
     pagecolor="#ffffff"
     bordercolor="#000000"
     borderopacity="0.25"
     inkscape:showpageshadow="2"
     inkscape:pageopacity="0.0"
     inkscape:pagecheckerboard="0"
     inkscape:deskcolor="#d1d1d1"
     inkscape:document-units="mm" />
  <defs
     id="defs1" />
  <g
     inkscape:label="Layer 1"
     inkscape:groupmode="layer"
     id="layer1">
    <path
       id="rect6"
       style="fill:none;stroke:#000000;stroke-width:0.180844"
       d="M 23.576736,54.610073 H 56.179482 V 84.008799 H 23.576736 Z" />
    <path
       id="rect6-0"
       style="fill:none;stroke:#000000;stroke-width:0.180844"
       d="M 58.267818,54.594559 H 90.870564 V 83.993284 H 58.267818 Z" />
    <path
       id="rect6-8"
       style="fill:none;stroke:#000000;stroke-width:0.180844"
       d="M 23.373695,85.479385 H 55.97644 V 114.87811 H 23.373695 Z" />
    <path
       id="rect6-0-6"
       style="fill:none;stroke:#000000;stroke-width:0.180844"
       d="M 58.064831,85.463867 H 90.667576 V 114.86259 H 58.064831 Z" />
    <path
       id="rect6-9"
       style="fill:none;stroke:#000000;stroke-width:0.180844"
       d="m 23.576738,116.5209 h 32.602745 v 29.39872 H 23.576738 Z" />
    <path
       id="rect6-0-8"
       style="fill:none;stroke:#000000;stroke-width:0.180844"
       d="m 58.26791,116.50541 h 32.602745 v 29.39872 H 58.26791 Z" />
    <path
       id="rect6-8-5"
       style="fill:none;stroke:#000000;stroke-width:0.180844"
       d="M 23.373695,147.39012 H 55.97644 v 29.39873 H 23.373695 Z" />
    <path
       id="rect6-0-6-1"
       style="fill:none;stroke:#000000;stroke-width:0.180844"
       d="m 58.064899,147.37459 h 32.602746 v 29.39872 H 58.064899 Z" />
    <path
       id="rect6-9-0"
       style="fill:none;stroke:#000000;stroke-width:0.180844"
       d="m 92.633087,116.52258 h 32.602743 v 29.39873 H 92.633087 Z" />
    <path
       id="rect6-0-8-1"
       style="fill:none;stroke:#000000;stroke-width:0.180844"
       d="m 127.32423,116.50708 h 32.60274 v 29.39873 h -32.60274 z" />
    <path
       id="rect6-8-5-1"
       style="fill:none;stroke:#000000;stroke-width:0.180844"
       d="m 92.430046,147.3918 h 32.602744 v 29.39873 H 92.430046 Z" />
    <path
       id="rect6-0-6-1-6"
       style="fill:none;stroke:#000000;stroke-width:0.180844"
       d="m 127.12119,147.37627 h 32.60275 v 29.39872 h -32.60275 z" />
    <path
       id="rect6-0-8-1-0"
       style="fill:none;stroke:#000000;stroke-width:0.180844"
       d="m 161.95377,116.50765 h 32.60274 v 29.39873 h -32.60274 z" />
    <path
       id="rect6-0-6-1-6-3"
       style="fill:none;stroke:#000000;stroke-width:0.180844"
       d="m 161.75073,147.37695 h 32.60275 v 29.39873 h -32.60275 z" />
    <path
       d="m 39.533995,69.980171 h -2.773327 v -0.43915 l 2.179043,-2.694567 h -2.097896 v -0.420056 h 2.639673 v 0.427216 l -2.200523,2.706501 h 2.25303 z m 2.861635,0 h -1.923668 v -0.362776 h 0.739873 v -2.381911 h -0.739873 v -0.324589 q 0.150361,0 0.322203,-0.02387 0.171841,-0.02625 0.260148,-0.07399 0.109788,-0.05967 0.171842,-0.150361 0.06444,-0.09308 0.07399,-0.248215 h 0.369936 v 3.20293 h 0.725552 z"
       id="text6"
       style="font-size:4.88793px;fill:none;stroke:#000000;stroke-width:0.407327"
       transform="scale(0.99249466,1.0075621)"
       aria-label="Z1" />
    <path
       d="m 43.019001,94.511505 h -2.363416 v -0.374241 l 1.85697,-2.296297 h -1.787817 v -0.35797 h 2.249517 v 0.364072 l -1.875275,2.306466 h 1.920021 z m 2.345111,-1.458321 q 0.09763,0.08746 0.16068,0.219663 0.06305,0.132205 0.06305,0.341699 0,0.20746 -0.07526,0.380343 -0.07525,0.172883 -0.211527,0.301021 -0.152544,0.142374 -0.360004,0.211527 -0.205426,0.06712 -0.451531,0.06712 -0.252206,0 -0.496277,-0.06102 -0.24407,-0.05898 -0.400682,-0.130171 v -0.425089 h 0.03051 q 0.172883,0.113899 0.406784,0.189154 0.233901,0.07525 0.451531,0.07525 0.128137,0 0.272545,-0.04271 0.144408,-0.04271 0.233901,-0.126103 0.09356,-0.08949 0.138306,-0.19729 0.04678,-0.107798 0.04678,-0.272546 0,-0.162714 -0.05288,-0.268477 -0.05085,-0.107798 -0.142375,-0.168816 -0.09153,-0.06305 -0.221697,-0.08543 -0.130171,-0.02441 -0.280681,-0.02441 h -0.183053 v -0.33763 h 0.142374 q 0.309156,0 0.492209,-0.128137 0.185087,-0.130171 0.185087,-0.37831 0,-0.109831 -0.04678,-0.191188 -0.04678,-0.08339 -0.130171,-0.136273 -0.08746,-0.05288 -0.187121,-0.07322 -0.09966,-0.02034 -0.225765,-0.02034 -0.193223,0 -0.410852,0.06915 -0.21763,0.06915 -0.410852,0.195256 h -0.02034 v -0.425089 q 0.144408,-0.07119 0.384411,-0.130171 0.242036,-0.06102 0.467802,-0.06102 0.221697,0 0.390512,0.04068 0.168816,0.04068 0.305089,0.130171 0.146442,0.09763 0.221697,0.235934 0.07525,0.138307 0.07525,0.323394 0,0.252206 -0.178985,0.441361 -0.176951,0.18712 -0.418988,0.235935 v 0.02847 q 0.09763,0.01627 0.223732,0.06915 0.126103,0.05085 0.213561,0.128137 z"
       id="text8"
       style="font-size:4.16547px;fill:none;stroke:#000000;stroke-width:0.347122"
       transform="scale(0.93323548,1.0715409)"
       aria-label="Z3" />
    <path
       d="m 84.192691,88.576851 h -2.097444 v -0.332126 l 1.647992,-2.037878 h -1.586621 v -0.317685 h 1.996362 v 0.3231 l -1.664237,2.046904 h 1.703948 z m 2.379029,-0.756307 h -0.398912 v 0.756307 h -0.346566 v -0.756307 h -1.286985 v -0.415157 l 1.301426,-1.516225 h 0.332125 v 1.642577 h 0.398912 z m -0.745478,-0.288805 v -1.21298 l -1.041501,1.21298 z"
       id="text9"
       style="font-size:3.6967px;fill:none;stroke:#000000;stroke-width:0.308058"
       transform="scale(0.87871447,1.1380261)"
       aria-label="Z4" />
    <path
       d="m 43.537149,123.22992 h -2.392137 v -0.37879 l 1.879537,-2.3242 h -1.809543 v -0.36232 h 2.276853 v 0.36849 l -1.898064,2.3345 h 1.943354 z m 2.618588,-0.97374 q 0,0.2141 -0.07823,0.40967 -0.07823,0.19557 -0.214098,0.32938 -0.148222,0.14411 -0.354086,0.22234 -0.203805,0.0762 -0.473486,0.0762 -0.251154,0 -0.48378,-0.0535 -0.232626,-0.0515 -0.3932,-0.12557 v -0.43438 h 0.02882 q 0.168808,0.10705 0.395258,0.18322 0.22645,0.0741 0.444666,0.0741 0.146163,0 0.282033,-0.0412 0.137929,-0.0412 0.244978,-0.1441 0.09058,-0.0885 0.13587,-0.21204 0.04735,-0.12352 0.04735,-0.28615 0,-0.15852 -0.05558,-0.26763 -0.05353,-0.10911 -0.150281,-0.17498 -0.107049,-0.0782 -0.261447,-0.10911 -0.152339,-0.0329 -0.341734,-0.0329 -0.18116,0 -0.349968,0.0247 -0.16675,0.0247 -0.288209,0.0494 v -1.57897 h 1.844539 v 0.36026 H 44.68793 v 0.81522 q 0.08852,-0.008 0.18116,-0.0123 0.09264,-0.004 0.160574,-0.004 0.249095,0 0.436431,0.0432 0.187336,0.0412 0.343792,0.14822 0.164691,0.11323 0.255272,0.29233 0.09058,0.1791 0.09058,0.44878 z"
       id="text10"
       style="font-size:4.21609px;fill:none;stroke:#000000;stroke-width:0.35134"
       transform="scale(0.92244212,1.0840789)"
       aria-label="Z5" />
    <path
       d="m 79.143319,126.37546 h -2.426651 v -0.38426 l 1.906654,-2.35773 h -1.835651 v -0.36755 h 2.309704 v 0.37381 l -1.925449,2.36818 h 1.971393 z m 2.727371,-1.00867 q 0,0.47405 -0.313251,0.77477 -0.311162,0.29864 -0.764332,0.29864 -0.229717,0 -0.417668,-0.071 -0.187951,-0.071 -0.332046,-0.21092 -0.179597,-0.17333 -0.277749,-0.45943 -0.09606,-0.28611 -0.09606,-0.68916 0,-0.41349 0.08771,-0.733 0.0898,-0.31952 0.284014,-0.56803 0.183774,-0.23598 0.474053,-0.36755 0.290279,-0.13365 0.676622,-0.13365 0.123212,0 0.206746,0.0104 0.08353,0.0104 0.169155,0.0376 v 0.39887 h -0.02088 q -0.05847,-0.0313 -0.177509,-0.0585 -0.116947,-0.0292 -0.240159,-0.0292 -0.448993,0 -0.716301,0.28193 -0.267307,0.27983 -0.311162,0.75806 0.17542,-0.1065 0.344576,-0.1608 0.171243,-0.0564 0.394696,-0.0564 0.198392,0 0.348753,0.0376 0.152448,0.0355 0.311162,0.14618 0.183774,0.12739 0.275661,0.3216 0.09398,0.19422 0.09398,0.47197 z m -0.423933,0.0167 q 0,-0.19422 -0.05847,-0.32161 -0.05638,-0.12739 -0.187951,-0.22136 -0.09606,-0.0668 -0.21301,-0.0877 -0.116947,-0.0209 -0.244336,-0.0209 -0.177509,0 -0.329958,0.0418 -0.152449,0.0418 -0.313251,0.12948 -0.0042,0.0459 -0.0063,0.0898 -0.0021,0.0418 -0.0021,0.1065 0,0.32996 0.06683,0.52209 0.06891,0.19004 0.18795,0.30072 0.09606,0.0919 0.206746,0.13574 0.11277,0.0418 0.244336,0.0418 0.302809,0 0.476141,-0.18378 0.173332,-0.18586 0.173332,-0.53252 z"
       id="text11"
       style="font-size:4.27692px;fill:none;stroke:#000000;stroke-width:0.356409"
       transform="scale(0.94233828,1.06119)"
       aria-label="Z6" />
    <path
       d="m 113.5379,128.56758 h -2.37798 v -0.37655 l 1.86841,-2.31044 h -1.79883 v -0.36017 h 2.26338 v 0.36631 l -1.88683,2.32068 h 1.93185 z m 2.63583,-2.5908 -1.37931,2.5908 h -0.43794 l 1.4673,-2.68903 h -1.73539 v -0.35813 h 2.08534 z"
       id="text12"
       style="font-size:4.19113px;fill:none;stroke:#000000;stroke-width:0.34926"
       transform="scale(0.96455148,1.0367513)"
       aria-label="Z7" />
    <path
       d="m 157.5199,122.43318 h -2.58867 v -0.40991 l 2.03395,-2.51515 h -1.95821 v -0.39209 h 2.46392 v 0.39877 l -2.05401,2.52629 h 2.10302 z m 2.88497,-0.92452 q 0,0.42996 -0.3364,0.71511 -0.33416,0.28516 -0.8421,0.28516 -0.53912,0 -0.85992,-0.27848 -0.31857,-0.27847 -0.31857,-0.71288 0,-0.27625 0.1604,-0.49902 0.1604,-0.22501 0.45224,-0.35645 v -0.0134 q -0.26733,-0.14258 -0.39654,-0.31189 -0.12699,-0.16931 -0.12699,-0.42328 0,-0.37427 0.30744,-0.62378 0.30743,-0.24951 0.78194,-0.24951 0.4968,0 0.79309,0.23837 0.2963,0.23838 0.2963,0.60596 0,0.225 -0.14035,0.44333 -0.14035,0.21609 -0.41214,0.33862 v 0.0134 q 0.31189,0.13367 0.47674,0.32971 0.16486,0.19605 0.16486,0.49903 z m -0.52799,-1.6196 q 0,-0.23837 -0.1849,-0.37872 -0.18268,-0.14257 -0.46783,-0.14257 -0.2807,0 -0.46115,0.13366 -0.17822,0.13367 -0.17822,0.3609 0,0.1604 0.0891,0.27847 0.0913,0.11585 0.27401,0.20719 0.0824,0.0401 0.23615,0.1047 0.15594,0.0646 0.30297,0.10693 0.22055,-0.14703 0.30521,-0.3052 0.0847,-0.15817 0.0847,-0.36536 z m 0.0691,1.66192 q 0,-0.20495 -0.0913,-0.32748 -0.0891,-0.12475 -0.35199,-0.24951 -0.10471,-0.049 -0.22946,-0.0913 -0.12476,-0.0423 -0.33194,-0.11807 -0.2005,0.10916 -0.32303,0.29629 -0.1203,0.18714 -0.1203,0.42328 0,0.30075 0.20719,0.49679 0.20718,0.19605 0.52575,0.19605 0.32525,0 0.51907,-0.16709 0.19605,-0.16708 0.19605,-0.45892 z"
       id="text13"
       style="font-size:4.56248px;fill:none;stroke:#000000;stroke-width:0.380206"
       transform="scale(0.91402942,1.0940567)"
       aria-label="Z8" />
    <path
       d="m 203.51406,117.32896 h -2.39825 v -0.37976 l 1.88434,-2.33015 h -1.81417 v -0.36324 h 2.28268 v 0.36944 l -1.90292,2.34046 h 1.94832 z m 2.64593,-1.7213 q 0,0.40246 -0.0929,0.73062 -0.0908,0.32816 -0.27656,0.55932 -0.18782,0.23529 -0.47057,0.36325 -0.28276,0.12796 -0.66458,0.12796 -0.10732,0 -0.20226,-0.0124 -0.0949,-0.0103 -0.16924,-0.0351 v -0.39421 h 0.0206 q 0.0598,0.031 0.16924,0.0599 0.10938,0.0268 0.24354,0.0268 0.45612,0 0.71411,-0.27244 0.26005,-0.2745 0.30133,-0.75538 -0.19195,0.11557 -0.36119,0.16511 -0.16923,0.0495 -0.36943,0.0495 -0.18988,0 -0.34467,-0.0371 -0.15273,-0.0372 -0.30753,-0.14447 -0.18162,-0.1259 -0.2745,-0.31991 -0.0908,-0.194 -0.0908,-0.46437 0,-0.47057 0.30959,-0.76571 0.30958,-0.29514 0.75539,-0.29514 0.2229,0 0.41278,0.0702 0.18988,0.0681 0.33228,0.20639 0.17544,0.17131 0.27038,0.44168 0.0949,0.26831 0.0949,0.69553 z m -0.41691,-0.0887 q 0,-0.31991 -0.066,-0.51392 -0.066,-0.194 -0.18162,-0.30133 -0.097,-0.0929 -0.20845,-0.13209 -0.11146,-0.0413 -0.24148,-0.0413 -0.2972,0 -0.47057,0.18575 -0.1713,0.18575 -0.1713,0.52216 0,0.19608 0.0557,0.31991 0.0557,0.12383 0.18782,0.21671 0.0929,0.064 0.20432,0.0867 0.11145,0.0206 0.24767,0.0206 0.16098,0 0.3261,-0.0433 0.16511,-0.0433 0.30958,-0.1259 0.002,-0.0433 0.004,-0.0846 0.004,-0.0433 0.004,-0.10938 z"
       id="text14"
       style="font-size:4.22687px;fill:none;stroke:#000000;stroke-width:0.352238"
       transform="scale(0.88213032,1.1336194)"
       aria-label="Z9" />
    <path
       d="m 109.59092,162.86684 h -1.80144 v -0.28526 l 1.41542,-1.75028 h -1.36271 v -0.27285 h 1.71463 v 0.2775 l -1.42937,1.75803 h 1.46347 z m 1.85881,0 h -1.24954 v -0.23565 h 0.48059 V 161.084 h -0.48059 v -0.21084 q 0.0977,0 0.20929,-0.0155 0.11162,-0.0171 0.16898,-0.0481 0.0713,-0.0388 0.11162,-0.0977 0.0419,-0.0605 0.0481,-0.16123 h 0.2403 v 2.08049 h 0.47129 z m 2.15025,0 h -1.56269 v -0.32401 q 0.16278,-0.13953 0.32556,-0.27906 0.16433,-0.13952 0.30541,-0.2775 0.29765,-0.28835 0.40772,-0.45734 0.11007,-0.17053 0.11007,-0.36742 0,-0.17983 -0.11937,-0.2806 -0.11782,-0.10232 -0.33021,-0.10232 -0.14108,0 -0.30541,0.0496 -0.16433,0.0496 -0.32091,0.15193 h -0.0155 v -0.32556 q 0.11007,-0.0543 0.293,-0.0992 0.18449,-0.045 0.35657,-0.045 0.35502,0 0.55656,0.17208 0.20153,0.17054 0.20153,0.46354 0,0.13178 -0.0341,0.2465 -0.0326,0.11317 -0.0977,0.21549 -0.0605,0.0961 -0.14263,0.18913 -0.0806,0.093 -0.19689,0.20619 -0.16588,0.16278 -0.34261,0.31626 -0.17673,0.15193 -0.33021,0.28216 h 1.24178 z"
       id="text17"
       style="font-size:3.175px;fill:none;stroke:#000000;stroke-width:0.264583"
       aria-label="Z12" />
    <path
       d="m 144.2705,162.35751 h -1.80144 v -0.28525 l 1.41542,-1.75028 h -1.36271 v -0.27285 h 1.71463 v 0.2775 l -1.42937,1.75803 h 1.46347 z m 1.85881,0 h -1.24954 v -0.23564 h 0.48059 v -1.54719 h -0.48059 v -0.21084 q 0.0977,0 0.20929,-0.0155 0.11162,-0.0171 0.16898,-0.0481 0.0713,-0.0388 0.11162,-0.0977 0.0419,-0.0605 0.0481,-0.16123 h 0.2403 v 2.08049 h 0.47129 z m 1.94716,-1.11156 q 0.0744,0.0667 0.12248,0.16744 0.0481,0.10076 0.0481,0.26044 0,0.15813 -0.0574,0.28991 -0.0574,0.13177 -0.16124,0.22944 -0.11627,0.10852 -0.2744,0.16123 -0.15658,0.0512 -0.34416,0.0512 -0.19224,0 -0.37827,-0.0465 -0.18604,-0.045 -0.30541,-0.0992 v -0.32401 h 0.0232 q 0.13178,0.0868 0.31006,0.14418 0.17829,0.0574 0.34417,0.0574 0.0977,0 0.20774,-0.0326 0.11007,-0.0326 0.17828,-0.0961 0.0713,-0.0682 0.10542,-0.15038 0.0357,-0.0822 0.0357,-0.20774 0,-0.12402 -0.0403,-0.20464 -0.0388,-0.0822 -0.10852,-0.12867 -0.0698,-0.0481 -0.16898,-0.0651 -0.0992,-0.0186 -0.21394,-0.0186 h -0.13953 v -0.25735 h 0.10852 q 0.23564,0 0.37517,-0.0977 0.14108,-0.0992 0.14108,-0.28835 0,-0.0837 -0.0357,-0.14573 -0.0357,-0.0636 -0.0992,-0.10387 -0.0667,-0.0403 -0.14262,-0.0558 -0.076,-0.0155 -0.17209,-0.0155 -0.14728,0 -0.31316,0.0527 -0.16588,0.0527 -0.31316,0.14883 h -0.0155 v -0.32401 q 0.11007,-0.0543 0.29301,-0.0992 0.18448,-0.0465 0.35656,-0.0465 0.16899,0 0.29766,0.031 0.12867,0.031 0.23254,0.0992 0.11163,0.0744 0.16899,0.17984 0.0574,0.10542 0.0574,0.24649 0,0.19224 -0.13643,0.33642 -0.13487,0.14262 -0.31936,0.17983 v 0.0217 q 0.0744,0.0124 0.17053,0.0527 0.0961,0.0388 0.16278,0.0977 z"
       id="text18"
       style="font-size:3.175px;fill:none;stroke:#000000;stroke-width:0.264583"
       aria-label="Z13" />
    <path
       d="m 179.7816,163.84369 h -1.80144 v -0.28525 l 1.41541,-1.75029 h -1.3627 v -0.27285 h 1.71462 v 0.27751 l -1.42937,1.75803 h 1.46348 z m 1.8588,0 h -1.24954 v -0.23565 h 0.48059 v -1.54719 h -0.48059 v -0.21084 q 0.0977,0 0.20929,-0.0155 0.11162,-0.017 0.16898,-0.0481 0.0713,-0.0388 0.11163,-0.0977 0.0418,-0.0605 0.048,-0.16123 h 0.2403 v 2.08049 h 0.47129 z m 2.20297,-0.64957 h -0.34262 v 0.64957 h -0.29766 v -0.64957 h -1.10535 v -0.35657 l 1.11776,-1.30225 h 0.28525 v 1.41077 h 0.34262 z m -0.64028,-0.24805 v -1.0418 l -0.89451,1.0418 z"
       id="text19"
       style="font-size:3.175px;fill:none;stroke:#000000;stroke-width:0.264583"
       aria-label="Z14" />
    <path
       d="M 39.16124,161.18263 H 37.3598 v -0.28525 l 1.415417,-1.75028 H 37.41251 v -0.27285 h 1.714624 v 0.2775 l -1.42937,1.75803 h 1.463476 z m 1.858802,0 h -1.249537 v -0.23564 h 0.480591 v -1.54719 h -0.480591 v -0.21084 q 0.09767,0 0.20929,-0.0155 0.111621,-0.0171 0.168982,-0.0481 0.07131,-0.0388 0.111621,-0.0977 0.04186,-0.0605 0.04806,-0.16124 h 0.240296 v 2.0805 h 0.471289 z m 2.147155,-1.15497 q 0,0.62167 -0.195337,0.91313 -0.193786,0.2899 -0.603063,0.2899 -0.415479,0 -0.607715,-0.29455 -0.190686,-0.29456 -0.190686,-0.90538 0,-0.61546 0.193786,-0.90847 0.193787,-0.29455 0.604615,-0.29455 0.415478,0 0.606164,0.2992 0.192236,0.29766 0.192236,0.90072 z m -0.407727,0.70384 q 0.05426,-0.12558 0.07286,-0.29456 0.02015,-0.17053 0.02015,-0.40928 0,-0.23564 -0.02015,-0.40927 -0.0186,-0.17364 -0.07441,-0.29456 -0.05426,-0.11937 -0.148828,-0.17983 -0.09302,-0.0605 -0.240295,-0.0605 -0.145728,0 -0.241846,0.0605 -0.09457,0.0605 -0.150379,0.18293 -0.05271,0.11472 -0.07286,0.29921 -0.0186,0.18448 -0.0186,0.40462 0,0.24185 0.01705,0.40463 0.01705,0.16278 0.07286,0.29146 0.05116,0.12092 0.144177,0.18448 0.09457,0.0636 0.249598,0.0636 0.145727,0 0.241845,-0.0605 0.09612,-0.0605 0.148828,-0.18293 z"
       id="text20"
       style="font-size:3.175px;fill:none;stroke:#000000;stroke-width:0.264583"
       aria-label="Z10" />
    <path
       d="m 74.18372,161.81696 h -1.80144 v -0.28526 l 1.415417,-1.75028 H 72.43499 v -0.27285 h 1.714624 v 0.2775 l -1.42937,1.75803 h 1.463476 z m 1.858802,0 h -1.249537 v -0.23565 h 0.480591 v -1.54719 h -0.480591 v -0.21084 q 0.09767,0 0.20929,-0.0155 0.111621,-0.0171 0.168982,-0.0481 0.07131,-0.0388 0.111621,-0.0977 0.04186,-0.0605 0.04806,-0.16123 h 0.240296 v 2.08049 h 0.471289 z m 2.018481,0 h -1.249536 v -0.23565 h 0.480591 v -1.54719 h -0.480591 v -0.21084 q 0.09767,0 0.20929,-0.0155 0.111621,-0.0171 0.168981,-0.0481 0.07131,-0.0388 0.111622,-0.0977 0.04186,-0.0605 0.04806,-0.16123 h 0.240295 v 2.08049 h 0.471289 z"
       id="text21"
       style="font-size:3.175px;fill:none;stroke:#000000;stroke-width:0.264583"
       aria-label="Z11" />
    <path
       d="m 81.360736,64.029663 h -2.410815 v -0.381747 l 1.894212,-2.34235 h -1.823672 v -0.365149 h 2.294631 v 0.371373 l -1.912884,2.352724 h 1.958528 z m 2.66393,0 h -2.091309 v -0.433615 q 0.217844,-0.186724 0.435689,-0.373448 0.21992,-0.186724 0.408718,-0.371373 0.398345,-0.385897 0.54565,-0.61204 0.147304,-0.228219 0.147304,-0.491707 0,-0.240667 -0.159753,-0.375523 -0.157678,-0.136931 -0.441913,-0.136931 -0.188799,0 -0.408718,0.06639 -0.21992,0.06639 -0.429466,0.203322 h -0.02075 v -0.43569 q 0.147305,-0.07261 0.392121,-0.132781 0.24689,-0.06017 0.477183,-0.06017 0.475109,0 0.744822,0.230293 0.269712,0.228218 0.269712,0.620339 0,0.17635 -0.04564,0.329879 -0.04357,0.151454 -0.130707,0.288385 -0.08091,0.128632 -0.190874,0.253115 -0.107885,0.124483 -0.263488,0.275937 -0.221994,0.217844 -0.458511,0.423241 -0.236517,0.203322 -0.441914,0.377597 h 1.661844 z"
       id="text22"
       style="font-size:4.24901px;fill:none;stroke:#000000;stroke-width:0.354084"
       transform="scale(0.91207584,1.0964001)"
       aria-label="Z2" />
  </g>
</svg>
